<?xml version="1.0" encoding="UTF-8" standalone="no"?><!DOCTYPE svg PUBLIC "-//W3C//DTD SVG 1.1//EN" "http://www.w3.org/Graphics/SVG/1.1/DTD/svg11.dtd"><svg width="100%" height="100%" viewBox="0 0 16 16" version="1.1" xmlns="http://www.w3.org/2000/svg" xmlns:xlink="http://www.w3.org/1999/xlink" xml:space="preserve" xmlns:serif="http://www.serif.com/" style="fill-rule:evenodd;clip-rule:evenodd;stroke-linejoin:round;stroke-miterlimit:2;"><rect id="Level-Bounds" serif:id="Level Bounds" x="0" y="0" width="16" height="16" style="fill:none;"/><clipPath id="_clip1"><rect id="Level-Bounds1" serif:id="Level Bounds" x="0" y="0" width="16" height="16"/></clipPath><g clip-path="url(#_clip1)"><path d="M16,-0l0,16l-16,0l0,-16l16,-0Zm-2,2l-12,0l-0,12l12,0l0,-12Z" style="fill:#008eff;"/><g><path d="M3.725,3.625l1.375,0l0,7.5l2.263,0l0,1.25l-3.638,0l0,-8.75Z" style="fill:#00d1ff;fill-rule:nonzero;"/><path d="M8.025,3.625l2.075,0c0.708,0 1.225,0.165 1.55,0.494c0.325,0.329 0.488,0.835 0.488,1.519l0,0.35c0,0.45 -0.073,0.817 -0.219,1.1c-0.146,0.283 -0.369,0.487 -0.669,0.612l0,0.025c0.683,0.233 1.025,0.842 1.025,1.825l0,0.75c0,0.675 -0.177,1.19 -0.531,1.544c-0.354,0.354 -0.873,0.531 -1.556,0.531l-2.163,0l0,-8.75Zm1.913,3.562c0.275,0 0.481,-0.071 0.619,-0.213c0.138,-0.142 0.206,-0.379 0.206,-0.712l0,-0.488c0,-0.317 -0.056,-0.546 -0.169,-0.687c-0.113,-0.142 -0.29,-0.213 -0.531,-0.213l-0.663,0l0,2.312l0.538,0Zm0.25,3.938c0.242,0 0.421,-0.065 0.537,-0.194c0.117,-0.129 0.175,-0.352 0.175,-0.669l0,-0.762c0,-0.4 -0.069,-0.677 -0.206,-0.831c-0.138,-0.154 -0.365,-0.231 -0.681,-0.231l-0.613,0l0,2.688l0.788,0Z" style="fill:#00d1ff;fill-rule:nonzero;"/></g></g></svg>