<?xml version="1.0" encoding="UTF-8" standalone="no"?><!DOCTYPE svg PUBLIC "-//W3C//DTD SVG 1.1//EN" "http://www.w3.org/Graphics/SVG/1.1/DTD/svg11.dtd"><svg width="100%" height="100%" viewBox="0 0 16 16" version="1.1" xmlns="http://www.w3.org/2000/svg" xmlns:xlink="http://www.w3.org/1999/xlink" xml:space="preserve" xmlns:serif="http://www.serif.com/" style="fill-rule:evenodd;clip-rule:evenodd;stroke-linejoin:round;stroke-miterlimit:2;"><rect id="Player-Spawn" serif:id="Player Spawn" x="0" y="0" width="16" height="16" style="fill:none;"/><clipPath id="_clip1"><rect x="0" y="0" width="16" height="16"/></clipPath><g clip-path="url(#_clip1)"><path d="M8,-0.021c3.311,0 6,2.689 6,6c0,3.311 -4.355,8.376 -6,10.021c-1.705,-1.705 -6,-6.709 -6,-10.021c0,-3.311 2.689,-6 6,-6Zm-1.265,6.078c-0.044,0.047 -0.047,0.044 -0.079,0.08c-0.017,0.019 -0.013,0.022 -0.03,0.041c-0.029,0.032 -0.035,0.048 -0.036,0.052c-0.002,0.006 -0.037,0.059 -0.04,0.064c-0.013,0.019 -0.011,0.02 -0.066,0.148c-0.037,0.087 -0.045,0.195 -0.047,0.212c-0.002,0.02 -0.002,1.712 0,1.752c0.005,0.071 0.003,0.071 0.015,0.141c0.006,0.035 0.014,0.18 0.106,0.442c0.063,0.18 0.204,0.384 0.243,0.427c0.016,0.018 0.017,0.016 0.02,0.024c0.008,0.018 0.047,0.016 0.067,0.047c0.012,0.018 0.039,0.085 0.045,0.105c0.001,0.002 0.032,0.107 0.035,0.124c0.014,0.071 0.019,0.07 0.028,0.141c0.009,0.065 0.014,0.082 0.016,0.089c0.003,0.009 0.043,0.262 0.045,0.274l0.131,0.788c0.003,0.023 0.012,0.052 0.022,0.141c0.001,0.007 0.003,0.007 0.016,0.089c0.002,0.011 0.02,0.122 0.024,0.142c0.012,0.055 0.017,0.123 0.027,0.159c0.01,0.033 0.008,0.093 0.036,0.159c0.031,0.074 0.029,0.074 0.038,0.087c0.006,0.01 0.009,0.028 0.081,0.113c0.011,0.013 0.049,0.048 0.054,0.052c0.008,0.007 0.008,0.006 0.022,0.014c0.002,0.001 0.018,0.014 0.027,0.017c0.005,0.002 0.004,0.003 0.062,0.027c0.036,0.015 0.037,0.013 0.681,0.013c0.089,-0 0.166,0.002 0.292,-0.128c0.057,-0.059 0.082,-0.122 0.089,-0.132c0.009,-0.013 0.008,-0.014 0.013,-0.028c0.029,-0.074 0.037,-0.142 0.043,-0.166c0.005,-0.023 0.025,-0.169 0.035,-0.212l0.035,-0.212c0.004,-0.017 0.157,-0.959 0.171,-1.019c0.002,-0.01 -0.004,-0.011 0.02,-0.132c0.015,-0.072 0.025,-0.164 0.04,-0.22c0.001,-0.005 0.047,-0.235 0.105,-0.299c0.014,-0.016 0.03,0.003 0.088,-0.072c0.006,-0.007 0.016,-0.015 0.023,-0.029l0.047,-0.069c0.116,-0.173 0.168,-0.332 0.178,-0.363c0.05,-0.153 0.069,-0.26 0.088,-0.372c0.02,-0.118 0.018,-0.118 0.018,-1.549c0,-0.387 0.001,-0.387 -0.009,-0.425c-0.006,-0.022 0.001,-0.023 -0.011,-0.053c-0.007,-0.017 -0.009,-0.054 -0.023,-0.081c-0.008,-0.016 -0.045,-0.147 -0.14,-0.267c-0.002,-0.002 -0,-0.003 -0.018,-0.026c-0.074,-0.094 -0.108,-0.119 -0.18,-0.167c-0.029,-0.019 -0.152,-0.102 -0.399,-0.174c-0.051,-0.015 -0.089,-0.021 -0.097,-0.022c-0.04,-0.006 -0.093,-0.035 -0.301,-0.035c-0.839,-0 -0.839,-0.001 -0.921,0.008c-0.039,0.004 -0.256,0.028 -0.476,0.131c-0.032,0.015 -0.033,0.013 -0.037,0.015c-0.001,0.001 -0.001,0.004 -0.002,0.004c-0.002,0 -0.004,-0.003 -0.006,-0.002c-0.001,0.001 0.001,0.004 -0.017,0.01c-0.003,0.001 -0.001,0.004 -0.035,0.018l-0.048,0.029l-0.01,0.007c-0.009,0.004 -0.017,0.007 -0.1,0.07Zm2.358,-1.208c0.007,-0.012 0.004,-0.013 0.012,-0.025l0.013,-0.02c0.001,-0.004 0,-0.004 0.002,-0.008c0.004,-0.007 0.032,-0.073 0.035,-0.08c0.004,-0.009 0.078,-0.213 0.084,-0.38c0.007,-0.232 -0.014,-0.322 -0.047,-0.443c-0.05,-0.182 -0.149,-0.329 -0.167,-0.355c-0.099,-0.146 -0.177,-0.208 -0.215,-0.246c-0.033,-0.033 -0.037,-0.027 -0.069,-0.055c-0.09,-0.074 -0.201,-0.124 -0.213,-0.132c-0.025,-0.017 -0.2,-0.081 -0.239,-0.087c-0.055,-0.009 -0.132,-0.042 -0.354,-0.039c-0.094,0.001 -0.123,0.008 -0.133,0.01c-0.039,0.009 -0.111,0.014 -0.177,0.037c-0.053,0.019 -0.054,0.015 -0.106,0.035c-0.244,0.092 -0.398,0.244 -0.427,0.272l-0.023,0.021l-0.035,0.036c-0.035,0.034 -0.114,0.146 -0.123,0.159c-0.015,0.021 -0.012,0.022 -0.027,0.044c-0.028,0.041 -0.101,0.2 -0.106,0.221c-0.001,0.006 -0.004,0.005 -0.006,0.01l0.001,0.006c-0.001,0.002 -0.002,0.002 -0.009,0.027c-0.032,0.118 -0.036,0.117 -0.043,0.169c-0.015,0.11 -0.02,0.11 -0.019,0.221c0.001,0.165 0.009,0.165 0.041,0.327c0.003,0.013 0.04,0.132 0.072,0.202c0.176,0.377 0.469,0.539 0.473,0.542c0.019,0.015 0.239,0.161 0.558,0.194c0.137,0.014 0.269,-0.003 0.292,-0.006c0.072,-0.009 0.071,-0.01 0.142,-0.027c0.011,-0.003 0.095,-0.023 0.14,-0.041l0.01,-0.006l0.018,-0.008c0.034,-0.016 0.036,-0.013 0.07,-0.03c0.065,-0.032 0.169,-0.093 0.229,-0.142c0.034,-0.028 0.035,-0.026 0.067,-0.057c0.014,-0.014 0.015,-0.011 0.03,-0.024c0.003,-0.003 0.006,-0.011 0.022,-0.022c0.008,-0.005 0.05,-0.053 0.052,-0.054c0.021,-0.013 0.094,-0.119 0.101,-0.13c0.029,-0.042 0.027,-0.042 0.055,-0.084l0.011,-0.017c0.003,-0.01 0.003,-0.009 0.009,-0.017Z" style="fill:#00ff8d;"/></g></svg>